<svg width="12" height="12" viewBox="0 0 12 12" fill="none" xmlns="http://www.w3.org/2000/svg">
<path d="M6.84374 0.525L11.7937 5.475C11.8687 5.55 11.922 5.63125 11.9535 5.71875C11.985 5.80625 12.0005 5.9 12 6C12 6.1 11.9842 6.19375 11.9527 6.28125C11.9212 6.36875 11.8682 6.45 11.7937 6.525L6.84374 11.475C6.70624 11.6125 6.53424 11.6843 6.32774 11.6903C6.12124 11.6963 5.94324 11.6245 5.79374 11.475C5.64374 11.3375 5.56549 11.1655 5.55899 10.959C5.55249 10.7525 5.62449 10.5745 5.77499 10.425L9.44999 6.75L1.06874 6.75C0.856238 6.75 0.677988 6.678 0.533989 6.534C0.389989 6.39 0.318238 6.212 0.318738 6C0.318738 5.7875 0.390489 5.60925 0.533989 5.46525C0.677488 5.32125 0.855738 5.2495 1.06874 5.25L9.44999 5.25L5.77499 1.575C5.63749 1.4375 5.56549 1.2625 5.55899 1.05C5.55249 0.837499 5.62449 0.662499 5.77499 0.525C5.91249 0.375 6.08749 0.299999 6.29999 0.299999C6.51249 0.299999 6.69374 0.375 6.84374 0.525Z" fill="#344B51"/>
</svg>
