<svg width="38" height="40" viewBox="0 0 38 40" fill="none" xmlns="http://www.w3.org/2000/svg">
<path d="M7.6 34.941L3.23 39.4057C2.62834 40.0204 1.93927 40.1583 1.1628 39.8192C0.386336 39.4801 -0.00126357 38.8732 3.09446e-06 37.9984V7.76468C3.09446e-06 6.69703 0.372403 5.78274 1.1172 5.0218C1.862 4.26087 2.75627 3.88104 3.8 3.88234H22.99C22.8633 4.52939 22.8 5.17645 22.8 5.82351C22.8 6.47056 22.8633 7.11762 22.99 7.76468H3.8V31.0587H34.2V15.3352C34.9283 15.1735 35.6092 14.9548 36.2425 14.6791C36.8758 14.4035 37.4617 14.0398 38 13.5882V31.0587C38 32.1263 37.6276 33.0406 36.8828 33.8016C36.138 34.5625 35.2437 34.9423 34.2 34.941H7.6ZM20.9 27.1764C21.4383 27.1764 21.8899 26.99 22.2547 26.6173C22.6195 26.2446 22.8013 25.7839 22.8 25.2352C22.8 24.6852 22.6176 24.2238 22.2528 23.8511C21.888 23.4784 21.4371 23.2927 20.9 23.294H9.5C8.96167 23.294 8.5101 23.4804 8.1453 23.8531C7.7805 24.2258 7.59874 24.6865 7.6 25.2352C7.6 25.7852 7.7824 26.2465 8.1472 26.6193C8.512 26.992 8.96294 27.1777 9.5 27.1764H20.9ZM28.5 21.3529C29.0383 21.3529 29.4899 21.1665 29.8547 20.7938C30.2195 20.4211 30.4013 19.9604 30.4 19.4117C30.4 18.8617 30.2176 18.4003 29.8528 18.0276C29.488 17.6549 29.0371 17.4692 28.5 17.4705H9.5C8.96167 17.4705 8.5101 17.6569 8.1453 18.0296C7.7805 18.4023 7.59874 18.863 7.6 19.4117C7.6 19.9617 7.7824 20.423 8.1472 20.7957C8.512 21.1684 8.96294 21.3542 9.5 21.3529H28.5ZM24.7 11.647H9.5C8.96167 11.647 8.5101 11.8334 8.1453 12.2061C7.7805 12.5788 7.59874 13.0395 7.6 13.5882C7.6 14.1382 7.7824 14.5995 8.1472 14.9722C8.512 15.3449 8.96294 15.5306 9.5 15.5294H30.4V15.3352C29.2283 15.0764 28.1593 14.6312 27.1928 13.9997C26.2263 13.3682 25.3954 12.584 24.7 11.647ZM32.3 11.647C30.7167 11.647 29.3708 11.0808 28.2625 9.94849C27.1542 8.81614 26.6 7.44115 26.6 5.82351C26.6 4.20587 27.1542 2.83087 28.2625 1.69852C29.3708 0.566174 30.7167 0 32.3 0C33.8833 0 35.2292 0.566174 36.3375 1.69852C37.4458 2.83087 38 4.20587 38 5.82351C38 7.44115 37.4458 8.81614 36.3375 9.94849C35.2292 11.0808 33.8833 11.647 32.3 11.647Z" fill="#737070"/>
</svg>
