<svg width="21" height="21" viewBox="0 0 21 21" fill="none" xmlns="http://www.w3.org/2000/svg">
<path d="M2 20.7C1.45 20.7 0.979002 20.5043 0.587002 20.113C0.195002 19.7217 -0.000664969 19.2507 1.69779e-06 18.7V4.69999C1.69779e-06 4.14999 0.196002 3.67899 0.588002 3.28699C0.980002 2.89499 1.45067 2.69932 2 2.69999H10.925L8.925 4.69999H2V18.7H16V11.75L18 9.74999V18.7C18 19.25 17.804 19.721 17.412 20.113C17.02 20.505 16.5493 20.7007 16 20.7H2ZM13.175 3.27499L14.6 4.67499L8 11.275V12.7H9.4L16.025 6.07499L17.45 7.47499L10.825 14.1C10.6417 14.2833 10.429 14.4293 10.187 14.538C9.945 14.6467 9.691 14.7007 9.425 14.7H7C6.71667 14.7 6.479 14.604 6.287 14.412C6.095 14.22 5.99934 13.9827 6 13.7V11.275C6 11.0083 6.05 10.754 6.15 10.512C6.25 10.27 6.39167 10.0577 6.575 9.87499L13.175 3.27499ZM17.45 7.47499L13.175 3.27499L15.675 0.774988C16.075 0.374988 16.5543 0.174988 17.113 0.174988C17.6717 0.174988 18.1423 0.374988 18.525 0.774988L19.925 2.19999C20.3083 2.58332 20.5 3.04999 20.5 3.59999C20.5 4.14999 20.3083 4.61665 19.925 4.99999L17.45 7.47499Z" fill="white"/>
</svg>
