<svg width="17" height="22" viewBox="0 0 17 22" fill="none" xmlns="http://www.w3.org/2000/svg">
<path d="M5.00842 13.6108C3.6332 12.5659 2.76434 11.2059 2.40182 9.53097C2.03931 7.85603 2.25651 6.24354 3.05341 4.69351C3.94828 2.95081 5.32564 1.78886 7.18547 1.20765C9.04531 0.626451 10.8464 0.782705 12.5887 1.67642C14.3314 2.57129 15.5082 3.94418 16.1192 5.79509C16.7302 7.64601 16.588 9.44223 15.6928 11.1838C14.8962 12.735 13.7117 13.8512 12.1393 14.5326C10.5668 15.2139 8.95589 15.3 7.30649 14.7909L6.06744 17.2039L7.21647 17.7939C7.54203 17.9611 7.75847 18.2116 7.8658 18.5455C7.97313 18.8794 7.94302 19.2085 7.77548 19.5329C7.6083 19.8585 7.35777 20.0749 7.02387 20.1823C6.68997 20.2896 6.36082 20.2595 6.03642 20.0919L4.88739 19.5019L4.29736 20.6509C4.13019 20.9765 3.87966 21.193 3.54576 21.3003C3.21186 21.4076 2.88271 21.3775 2.55831 21.21C2.23275 21.0428 2.01631 20.7922 1.90898 20.4583C1.80165 20.1244 1.83175 19.7953 1.9993 19.4709L2.58933 18.3219L1.44029 17.7318C1.11473 17.5647 0.898289 17.3141 0.79096 16.9802C0.68363 16.6463 0.713739 16.3172 0.881285 15.9928C1.04846 15.6672 1.29899 15.4508 1.63289 15.3435C1.96679 15.2361 2.29594 15.2662 2.62034 15.4338L3.76937 16.0238L5.00842 13.6108ZM7.2785 12.0177C8.38923 12.5881 9.53878 12.6822 10.7271 12.3003C11.9155 11.9183 12.7948 11.1719 13.3652 10.0612C13.9356 8.95044 14.0297 7.8009 13.6478 6.61255C13.2658 5.42419 12.5194 4.54484 11.4087 3.97448C10.2979 3.40412 9.1484 3.30994 7.96004 3.69193C6.77169 4.07392 5.89233 4.82028 5.32197 5.93101C4.75162 7.04174 4.65743 8.19128 5.03942 9.37963C5.42141 10.568 6.16777 11.4473 7.2785 12.0177Z" fill="#2D4C52"/>
</svg>
