<svg width="36" height="38" viewBox="0 0 36 38" fill="none" xmlns="http://www.w3.org/2000/svg">
<path d="M4.16667 8.16667H7.83333V10C7.83333 12.0167 9.48333 13.6667 11.5 13.6667H22.5C24.5167 13.6667 26.1667 12.0167 26.1667 10V8.16667H29.8333V17.3333H33.5V8.16667C33.5 6.15 31.85 4.5 29.8333 4.5H22.17C21.4 2.37333 19.3833 0.833334 17 0.833334C14.6167 0.833334 12.6 2.37333 11.83 4.5H4.16667C2.15 4.5 0.5 6.15 0.5 8.16667V33.8333C0.5 35.85 2.15 37.5 4.16667 37.5H15.1667V33.8333H4.16667V8.16667ZM17 4.5C18.0083 4.5 18.8333 5.325 18.8333 6.33333C18.8333 7.34167 18.0083 8.16667 17 8.16667C15.9917 8.16667 15.1667 7.34167 15.1667 6.33333C15.1667 5.325 15.9917 4.5 17 4.5Z" fill="#487A83"/>
<path d="M34.875 21.4583C34.1233 20.7067 32.8767 20.7067 32.125 21.4583L23.435 30.1667L19.2917 26.0417C18.54 25.29 17.3117 25.29 16.5417 26.0417C15.79 26.7933 15.79 28.04 16.5417 28.7917L22.1333 34.365C22.8483 35.08 24.0033 35.08 24.7183 34.365L34.8567 24.2083C35.6267 23.4567 35.6267 22.21 34.875 21.4583Z" fill="#487A83"/>
</svg>
