<svg width="282" height="254" viewBox="0 0 282 254" fill="none" xmlns="http://www.w3.org/2000/svg">
<path d="M89.9002 1C106.42 -1.38 123.92 16.68 128.96 41.6C134 66.38 124.9 88.5 108.38 91.02C92.0002 93.54 74.3602 75.48 69.1802 50.56C64.0002 25.78 73.3802 3.66 89.9002 1ZM190 1C206.66 3.66 215.9 25.78 211 50.56C205.68 75.48 188.18 93.54 171.66 91.02C155 88.5 145.9 66.38 151.08 41.6C156.12 16.68 173.62 -1.38 190 1ZM15.0002 65.4C30.9602 58.54 52.6602 71 64.0002 92.7C74.6402 114.82 71.0002 138.06 55.1802 144.92C39.3602 151.78 17.8002 139.46 6.74016 117.48C-4.31984 95.5 -0.399846 72.12 15.0002 65.4ZM267 65.4C282.4 72.12 286.32 95.5 275.26 117.48C264.2 139.46 242.64 151.78 226.82 144.92C211 138.06 207.36 114.82 218 92.7C229.34 71 251.04 58.54 267 65.4ZM243.62 216.32C244.18 229.48 234.1 244.04 222.06 249.5C197 260.98 167.32 237.18 139.46 237.18C111.6 237.18 81.6402 261.96 57.0002 249.5C43.0002 242.64 33.3402 224.44 35.1602 209.32C37.6802 188.46 62.7402 177.26 77.5802 162C97.3202 142.26 111.32 105.16 139.46 105.16C167.46 105.16 182.3 141.7 201.2 162C216.74 179.08 242.64 193.5 243.62 216.32Z" fill="#487A83"/>
</svg>
