<svg width="32" height="32" viewBox="0 0 32 32" fill="currentColor" xmlns="http://www.w3.org/2000/svg">
<path d="M16 16C13.8 16 11.9167 15.2167 10.35 13.65C8.78333 12.0833 8 10.2 8 8C8 5.8 8.78333 3.91667 10.35 2.35C11.9167 0.783334 13.8 0 16 0C18.2 0 20.0833 0.783334 21.65 2.35C23.2167 3.91667 24 5.8 24 8C24 10.2 23.2167 12.0833 21.65 13.65C20.0833 15.2167 18.2 16 16 16ZM0 32V26.4C0 25.2667 0.292 24.2247 0.876 23.274C1.46 22.3233 2.23467 21.5987 3.2 21.1C5.26667 20.0667 7.36667 19.2913 9.5 18.774C11.6333 18.2567 13.8 17.9987 16 18C18.2 18 20.3667 18.2587 22.5 18.776C24.6333 19.2933 26.7333 20.068 28.8 21.1C29.7667 21.6 30.542 22.3253 31.126 23.276C31.71 24.2267 32.0013 25.268 32 26.4V32H0ZM4 28H28V26.4C28 26.0333 27.908 25.7 27.724 25.4C27.54 25.1 27.2987 24.8667 27 24.7C25.2 23.8 23.3833 23.1253 21.55 22.676C19.7167 22.2267 17.8667 22.0013 16 22C14.1333 22 12.2833 22.2253 10.45 22.676C8.61667 23.1267 6.8 23.8013 5 24.7C4.7 24.8667 4.458 25.1 4.274 25.4C4.09 25.7 3.99867 26.0333 4 26.4V28ZM16 12C17.1 12 18.042 11.608 18.826 10.824C19.61 10.04 20.0013 9.09867 20 8C20 6.9 19.608 5.958 18.824 5.174C18.04 4.39 17.0987 3.99867 16 4C14.9 4 13.958 4.392 13.174 5.176C12.39 5.96 11.9987 6.90133 12 8C12 9.1 12.392 10.042 13.176 10.826C13.96 11.61 14.9013 12.0013 16 12Z" />
</svg>
