<svg width="33" height="35" viewBox="0 0 33 35" fill="none" xmlns="http://www.w3.org/2000/svg">
<path d="M3.66667 35C2.65834 35 1.79484 34.657 1.07617 33.971C0.357503 33.285 -0.00121911 32.4613 3.11262e-06 31.5V7C3.11262e-06 6.0375 0.359336 5.21325 1.078 4.52726C1.79667 3.84125 2.65956 3.49884 3.66667 3.50001H5.5V1.75001C5.5 1.25417 5.676 0.838256 6.028 0.502256C6.38 0.166256 6.81511 -0.00116061 7.33333 6.05537e-06C7.85278 6.05537e-06 8.2885 0.168006 8.6405 0.504006C8.9925 0.840006 9.16789 1.25534 9.16667 1.75001V3.50001H23.8333V1.75001C23.8333 1.25417 24.0093 0.838256 24.3613 0.502256C24.7133 0.166256 25.1484 -0.00116061 25.6667 6.05537e-06C26.1861 6.05537e-06 26.6218 0.168006 26.9738 0.504006C27.3258 0.840006 27.5012 1.25534 27.5 1.75001V3.50001H29.3333C30.3417 3.50001 31.2052 3.843 31.9238 4.529C32.6425 5.215 33.0012 6.03867 33 7V31.5C33 32.4625 32.6407 33.2867 31.922 33.9727C31.2033 34.6587 30.3404 35.0012 29.3333 35H3.66667ZM3.66667 31.5H29.3333V14H3.66667V31.5ZM15.7208 28.175L14.2083 24.9375L10.8167 23.4938C10.4806 23.3479 10.3125 23.1 10.3125 22.75C10.3125 22.4 10.4806 22.1521 10.8167 22.0063L14.2083 20.5625L15.7208 17.325C15.8736 17.0042 16.1333 16.8438 16.5 16.8438C16.8667 16.8438 17.1264 17.0042 17.2792 17.325L18.7917 20.5625L22.1833 22.0063C22.5194 22.1521 22.6875 22.4 22.6875 22.75C22.6875 23.1 22.5194 23.3479 22.1833 23.4938L18.7917 24.9375L17.2792 28.175C17.1264 28.4958 16.8667 28.6562 16.5 28.6562C16.1333 28.6562 15.8736 28.4958 15.7208 28.175Z" fill="#737070"/>
</svg>
