<svg width="273" height="178" viewBox="0 0 273 178" fill="none" xmlns="http://www.w3.org/2000/svg">
<path d="M158.844 87.9062H114.156C113.206 87.9062 112.438 88.7022 112.438 89.6875V125.312C112.438 126.298 113.206 127.094 114.156 127.094H158.844C159.794 127.094 160.562 126.298 160.562 125.312V89.6875C160.562 88.7022 159.794 87.9062 158.844 87.9062ZM156.695 123.086H116.305V120.865L123.744 111.719L131.806 121.628L144.347 106.22L156.695 121.394V123.086ZM156.695 115.861L144.675 101.087C144.503 100.876 144.191 100.876 144.02 101.087L131.806 116.095L124.071 106.593C123.899 106.381 123.588 106.381 123.416 106.593L116.305 115.332V91.9141H156.695V115.861ZM125.328 104.383C125.949 104.383 126.563 104.256 127.137 104.01C127.71 103.764 128.231 103.403 128.67 102.948C129.109 102.493 129.457 101.953 129.695 101.359C129.932 100.765 130.055 100.128 130.055 99.4844C130.055 98.8411 129.932 98.2041 129.695 97.6098C129.457 97.0155 129.109 96.4755 128.67 96.0207C128.231 95.5658 127.71 95.205 127.137 94.9588C126.563 94.7126 125.949 94.5859 125.328 94.5859C124.075 94.5859 122.872 95.102 121.986 96.0207C121.1 96.9393 120.602 98.1852 120.602 99.4844C120.602 100.784 121.1 102.029 121.986 102.948C122.872 103.867 124.075 104.383 125.328 104.383ZM125.328 97.9258C126.161 97.9258 126.832 98.6216 126.832 99.4844C126.832 100.347 126.161 101.043 125.328 101.043C124.496 101.043 123.824 100.347 123.824 99.4844C123.824 98.6216 124.496 97.9258 125.328 97.9258Z" fill="#A7A7A7"/>
<rect x="0.5" y="0.5" width="272" height="177" stroke="#737070" stroke-linecap="round" stroke-dasharray="4 10"/>
<g clip-path="url(#clip0_233_5974)">
<path d="M220 8H57V171H220V8Z" fill="#F0F6F7"/>
<path fill-rule="evenodd" clip-rule="evenodd" d="M103.526 95.8172C103.683 96.5757 103.507 97.3681 103.22 98.0875C103.292 98.1562 103.364 98.2246 103.436 98.2933C104.875 97.1734 106.336 96.0302 107.382 94.5369C107.822 93.908 107.302 92.9895 106.596 92.6863C105.89 92.3834 105.088 92.4768 104.32 92.4442C103.397 92.4053 102.482 92.173 101.652 91.7666C100.447 91.1769 99.3413 90.2039 97.9997 90.184C97.8517 90.1818 97.693 90.1953 97.5765 90.287C97.2929 90.5104 97.4661 90.9653 97.6794 91.2569C98.7371 92.7042 100.323 93.7565 102.067 94.169C102.821 94.3472 103.369 95.0585 103.526 95.8172Z" fill="#487A83"/>
<path fill-rule="evenodd" clip-rule="evenodd" d="M126.669 117.921L107.598 122.177C103.7 123.047 99.8346 120.592 98.9646 116.694C98.5454 114.816 98.8925 112.847 99.9292 111.225L110.451 94.7599C113.691 89.691 114.775 83.5399 113.465 77.6686L109.209 58.5974C108.339 54.6995 110.793 50.8344 114.691 49.9645C116.57 49.5452 118.539 49.8923 120.161 50.9288L136.626 61.4512C141.695 64.6905 147.846 65.7752 153.717 64.4649L172.788 60.2085C176.686 59.3387 180.551 61.7933 181.421 65.6911C181.841 67.57 181.493 69.5384 180.457 71.1603L169.935 87.6257C166.695 92.6946 165.611 98.846 166.921 104.717L171.177 123.788C172.047 127.686 169.593 131.551 165.695 132.421C163.816 132.84 161.847 132.493 160.225 131.457L143.76 120.934C138.691 117.695 132.54 116.61 126.669 117.921Z" fill="#487A83"/>
<path d="M193.745 110.496C193.745 110.496 108.278 110.541 74.4391 110.496C71.7831 104.706 75.1244 96.9695 81.1605 94.9333C79.2715 97.0884 77.3824 99.2435 75.4934 101.398C78.8122 101.365 193.745 101.398 193.745 101.398V110.496Z" fill="#F0F6F7"/>
<path fill-rule="evenodd" clip-rule="evenodd" d="M166.18 110.509C123.744 110.525 93.1634 110.521 74.4391 110.496C71.7831 104.706 136.907 107.144 161.601 107.144C186.296 107.144 174.871 110.505 166.18 110.509Z" fill="#E7EAEE"/>
<path fill-rule="evenodd" clip-rule="evenodd" d="M148.507 44.1189C148.809 43.775 149.404 43.7496 149.734 44.0665C148.668 41.9564 145.551 41.3239 144.882 39.0569C144.025 36.1551 142.76 33.3737 141.137 30.82C140.461 33.3306 139.171 35.6737 137.41 37.5867C136.952 37.5886 136.494 37.5908 136.036 37.5928C134.995 37.5975 133.946 37.6032 132.929 37.8268C131.101 38.2293 129.462 39.3199 127.609 39.5911C127.747 39.4192 127.884 39.2473 128.021 39.0752C127.983 38.8979 127.726 38.8166 127.592 38.94C127.358 38.0066 126.602 37.2737 125.744 36.8367C124.887 36.3998 123.622 35.5866 121.092 35.8004C124.162 39.238 123.211 53.5485 123.967 56.2606C124.224 56.3293 124.422 56.0476 124.589 55.8403C124.757 55.633 125.148 55.5054 125.238 55.7564C125.867 57.4999 125.957 60.183 127.885 61.2219C128.257 61.4223 128.478 61.0478 128.45 60.8653C128.413 60.6323 128.693 60.4528 128.926 60.4882C129.159 60.5234 129.346 60.6925 129.528 60.8427C132.595 63.375 137.616 62.0697 140.687 64.5977C141.294 65.0972 141.828 65.7481 142.586 65.9585C143.037 66.0839 143.519 66.0345 143.981 65.9517C146.729 65.459 149.176 63.8282 151.085 61.7902C152.994 59.7523 154.42 57.3155 155.747 54.8586C154.524 54.1662 153.239 53.4116 152.574 52.1732C152.051 51.1976 151.729 49.7993 150.628 49.68C150.977 50.814 151.327 51.9479 151.676 53.0817C151.804 53.497 151.933 53.9299 151.865 54.3592C151.798 54.7882 151.47 55.2098 151.036 55.2315C150.447 55.2611 150.033 54.5948 149.448 54.5189C149.337 56.712 148.495 58.8621 147.087 60.5471C146.598 61.1317 145.658 61.6627 145.162 61.0841C145.915 59.8681 146.668 58.6519 147.42 57.436C147.89 56.6781 148.371 55.8853 148.457 54.9981C148.543 54.1112 148.103 53.1049 147.25 52.8463C147.212 52.6116 147.46 52.4103 147.697 52.4032C147.935 52.3962 148.153 52.522 148.357 52.6438C149.116 53.0965 149.876 53.5494 150.635 54.0023C150.393 52.2019 149.898 50.4356 149.168 48.772C149.875 48.705 150.597 48.8128 151.254 49.0836C150.748 47.6218 149.822 46.3085 148.615 45.342C148.257 45.0562 148.205 44.4627 148.507 44.1189Z" fill="#F0F6F7"/>
<path fill-rule="evenodd" clip-rule="evenodd" d="M133.344 40.239C133.969 40.653 134.463 41.2635 134.736 41.962C134.821 42.1791 135.063 42.2839 135.226 42.4508C135.39 42.6175 135.416 42.9739 135.188 43.0207C135.088 43.0409 134.99 42.9859 134.902 42.9335C133.5 42.0961 131.794 41.42 130.264 41.992C130.516 42.1205 130.643 42.4502 130.543 42.7142C130.855 42.7255 131.146 42.8659 131.426 43.0037C131.674 43.125 131.921 43.246 132.168 43.3673C132.142 43.4403 132.116 43.5134 132.09 43.5862C130.973 43.0174 129.608 42.9583 128.446 43.4284C128.833 43.4871 129.226 43.4977 129.615 43.4601C130.182 43.7459 130.749 44.0317 131.316 44.3175C131.442 44.3809 131.575 44.4509 131.646 44.5731C131.717 44.6952 131.69 44.8845 131.558 44.9349C130.534 44.0313 129.084 43.6318 127.742 43.8828C127.585 43.9119 127.478 43.6935 127.544 43.5486C127.611 43.4036 127.77 43.3293 127.918 43.271C128.663 42.9778 129.448 42.7883 130.244 42.7094C129.846 42.3402 129.384 42.0392 128.886 41.8234C128.804 41.5428 129.209 41.2739 129.436 41.4582C131.16 41.1203 133.007 41.4556 134.502 42.378C134.515 42.0848 134.297 41.8381 134.094 41.6265C133.457 40.9651 132.821 40.3038 132.185 39.6424C133.299 39.7835 134.391 40.0973 135.41 40.5687C135.641 40.6754 135.868 40.7906 136.077 40.9351C136.863 41.4795 137.331 42.4532 137.265 43.4073C136.789 42.4006 136.035 41.5269 135.109 40.9084C134.579 40.555 133.979 40.2796 133.344 40.239Z" fill="#E7EAEE"/>
<path fill-rule="evenodd" clip-rule="evenodd" d="M92.8465 87.82C91.2333 89.2681 91.3743 91.8303 91.9565 93.9184C92.7057 96.6048 93.9725 99.1459 95.6669 101.361L75.4934 101.564L81.1605 95.0985C75.1244 97.1347 71.7831 104.871 74.4391 110.661C108.278 110.706 142.116 110.637 175.955 110.454C169.783 114.625 163.8 119.685 160.932 126.56C158.064 133.435 159.251 142.474 165.348 146.754C167.619 148.348 170.346 149.165 173.072 149.681C175.883 150.214 179.287 150.236 181.022 147.961C182.036 146.633 181.551 144.548 181.072 142.486C180.738 141.048 180.406 139.621 180.588 138.47C181.202 134.566 183.83 132.586 186.83 130.327C187.46 129.852 188.106 129.365 188.753 128.845C194.282 124.408 200.62 118.798 202.234 111.895C203.707 105.589 202.085 99.3343 197.87 94.4187C196.353 92.6487 194.487 91.0379 192.612 89.4189H192.612C190.092 87.2432 187.555 85.0529 185.823 82.4423C184.765 80.8482 184.395 79.1439 184.005 77.3556C183.866 76.7136 183.724 76.061 183.547 75.3986C181.274 66.8943 173.171 62.5216 164.827 58.0191C163.77 57.4488 162.709 56.8765 161.656 56.2934C156.827 53.6198 151.954 50.1977 150.403 44.8408C151.258 44.8741 151.575 43.589 151.083 42.8892C150.716 42.3689 150.137 42.0761 149.56 41.784C149.361 41.6834 149.162 41.5828 148.972 41.473C147.209 40.4537 146.198 38.3743 145.163 36.2449C143.608 33.0455 141.998 29.7333 137.699 29.7333C137.537 30.8187 137.705 31.7858 137.862 32.6919C138.105 34.092 138.322 35.3464 137.258 36.6674C134.212 36.3296 131.062 36.9957 128.414 38.5382C126.882 35.6311 122.999 34.3893 119.851 35.3303C120.249 35.8321 120.486 36.0838 120.682 36.2925C121.096 36.7332 121.329 36.9818 122.53 38.9904C124.3 41.9496 123.179 52.8285 122.899 54.5487C122.619 56.2687 123.944 57.4909 125.156 56.6416C124.566 59.1909 126.693 61.624 129.309 61.6972C130.202 61.8565 130.758 62.2888 131.282 62.6972C131.609 62.9512 131.923 63.1962 132.3 63.3605C123.994 69.3015 114.799 73.9974 105.117 77.2433L104.946 77.3004C103.135 77.9068 101.241 78.5405 99.9581 79.9484C98.6352 81.4004 98.3244 83.978 99.864 85.1981C98.924 86.0505 97.6376 86.2822 96.3508 86.5141C95.0692 86.7449 93.7871 86.9759 92.8465 87.82ZM178.651 99.3176C177.152 100.734 174.217 100.808 172.155 100.8L145.41 100.69C144.637 99.6636 145.115 98.0858 146.113 97.2768C147.111 96.4677 148.455 96.2499 149.736 96.1485C153.87 95.8211 158.074 96.4151 161.956 97.8747C163.046 98.0686 163.873 96.6933 163.61 95.6182C163.347 94.543 162.431 93.7739 161.58 93.0664C158.832 90.784 156.138 88.2136 154.848 84.8825C153.511 81.428 153.899 77.3528 155.864 74.2128C152.565 76.9538 151.871 81.9922 153.353 86.0177C154.835 90.0431 158.089 93.1742 161.615 95.6173C159.689 96.0122 157.69 95.5723 155.711 95.137C153.313 94.6095 150.945 94.0884 148.773 95.0668L148.326 82.8518L147.165 93.5587C147.079 94.3548 146.828 95.3398 146.041 95.4878C143.905 95.8896 142.639 98.6867 143.746 100.557C142.792 101.201 141.336 100.913 140.699 99.9537C140.062 98.9949 140.36 97.5409 141.324 96.9104C143.661 95.3817 143.846 92.0884 143.782 89.2964L143.343 70.0198C143.333 69.5545 143.438 68.9427 143.899 68.8785C150.647 67.941 156.647 62.8708 158.696 56.3736C164.677 59.0525 170.658 62.1414 175.483 66.3953C186.527 76.1303 183.497 84.2249 182.705 86.3424C182.566 86.7134 182.496 86.9009 182.582 86.8816C183.133 86.7586 183.394 86.1385 183.547 85.5954C183.903 84.3264 184.135 83.0224 184.238 81.7084C186.061 85.0942 188.962 87.6668 191.87 90.2444C194.528 92.6005 197.19 94.9607 199.038 97.9504C201.887 102.561 202.483 108.494 200.609 113.579C198.394 119.587 193.304 123.789 188.284 127.933C187.077 128.929 185.875 129.922 184.718 130.935C182.295 133.057 179.858 135.685 179.779 138.904C179.759 139.767 179.913 140.617 180.067 141.469C180.176 142.071 180.285 142.673 180.333 143.281C180.448 144.749 180.085 146.42 178.842 147.209C178.318 147.542 177.694 147.679 177.08 147.768C170.707 148.688 162.902 144.376 161.084 138.2C159.301 132.139 162.431 124.662 166.545 119.867C169.101 116.888 172.407 114.759 175.725 112.624V112.623C177.748 111.321 179.775 110.016 181.638 108.515C183.384 107.108 185.108 105.591 186.213 103.639C187.318 101.688 187.715 99.2072 186.722 97.1962C185.909 95.5482 184.306 94.4039 182.734 93.2816C180.757 91.8707 178.83 90.4947 178.584 88.1969C178.615 89.2292 179.05 90.3859 179.482 91.5323C179.859 92.5318 180.233 93.5237 180.332 94.4187C180.546 96.3404 180.056 97.9897 178.651 99.3176ZM181.903 95.3771C184.587 95.4065 186.164 98.8051 185.409 101.381C184.654 103.958 182.435 105.792 180.332 107.46C179.277 108.297 178.112 109.175 176.765 109.185L75.2016 109.945L74.7566 102.067L94.3444 102.048C96.8781 102.046 99.7508 102.19 101.401 104.113C102.001 104.812 103.07 104.051 103.802 103.491C105.537 102.167 107.892 102.102 110.074 102.093L181.737 101.802C182.505 101.799 183.539 101.541 183.514 100.773L178.695 100.592C180.426 99.4006 181.62 97.459 181.903 95.3771ZM107.373 101.193C108.448 98.5969 109.263 95.8931 109.804 93.1356C109.955 92.361 110.086 91.5679 109.983 90.7855C109.673 88.4375 107.444 86.892 105.395 85.703C106.269 85.6856 107.015 85.0675 107.576 84.3968C107.733 84.2101 107.882 84.0158 108.031 83.8217C108.418 83.3182 108.804 82.8148 109.314 82.4423C110.359 81.6784 110.527 81.6647 112.686 81.4876H112.687L112.694 81.4869C112.914 81.4689 113.155 81.4491 113.42 81.4267C115.319 81.2657 119.912 79.5353 123.266 78.2717C124.976 77.6271 126.365 77.104 126.908 76.9729C134.346 75.178 139.502 77.528 140.663 78.7944C141.297 79.4857 141.452 80.4768 141.58 81.4059C142.153 85.5854 142.725 89.8308 142.122 94.006C142.01 94.7853 141.801 95.6447 141.14 96.0728C140.478 96.5021 139.854 96.9911 139.278 97.5318C138.355 98.3987 137.526 99.8064 138.243 100.85L107.373 101.193ZM149.711 43.7566C149.381 43.4397 148.786 43.4651 148.484 43.8089C148.183 44.1528 148.235 44.7461 148.592 45.0321C149.799 45.9986 150.726 47.3119 151.231 48.7735C150.575 48.5029 149.852 48.3949 149.145 48.4618C149.875 50.1257 150.37 51.8918 150.612 53.6924L148.335 52.3336C148.131 52.2119 147.912 52.0863 147.675 52.0932C147.437 52.1002 147.189 52.3017 147.227 52.5362C148.08 52.7948 148.52 53.801 148.434 54.6882C148.348 55.5754 147.867 56.3682 147.398 57.126L145.14 60.774C145.636 61.3527 146.575 60.8218 147.064 60.2369C148.472 58.552 149.314 56.4021 149.425 54.2088C149.697 54.2442 149.932 54.4068 150.164 54.5678C150.433 54.7536 150.698 54.9375 151.013 54.9216C151.447 54.8999 151.775 54.4783 151.843 54.049C151.91 53.62 151.781 53.1869 151.653 52.7718L150.606 49.3701C151.46 49.4624 151.845 50.3248 152.219 51.1622C152.327 51.4043 152.434 51.6445 152.552 51.8633C153.216 53.1015 154.501 53.8563 155.724 54.5487C154.397 57.0056 152.972 59.4424 151.063 61.4803C149.154 63.5182 146.707 65.1491 143.958 65.6416C143.496 65.7244 143.015 65.7739 142.563 65.6483C141.997 65.4912 141.555 65.0876 141.115 64.6851H141.115C140.966 64.5493 140.817 64.4137 140.664 64.2876C139.13 63.0245 137.108 62.7185 135.087 62.4124C133.063 62.106 131.039 61.7996 129.505 60.5327C129.49 60.5208 129.476 60.5086 129.461 60.4964C129.293 60.3563 129.118 60.2106 128.903 60.178C128.67 60.1426 128.39 60.3224 128.427 60.5553C128.456 60.7379 128.234 61.1124 127.862 60.9118C126.428 60.1387 126.011 58.4552 125.633 56.9261C125.502 56.4001 125.377 55.8924 125.216 55.4463C125.125 55.1955 124.734 55.3228 124.567 55.5304L124.556 55.543C124.546 55.5556 124.536 55.5684 124.526 55.5812C124.367 55.7805 124.181 56.0139 123.944 55.9505C123.661 54.9101 123.76 53.7341 123.855 52.5964C123.894 52.1332 123.932 51.6764 123.944 51.2376C123.945 51.1978 123.957 51.0779 123.977 50.8899C124.196 48.7483 125.319 37.7684 121.092 35.8004C122.097 35.6024 123.719 35.7856 125.156 36.6674C126.611 37.5593 127.656 39.1947 127.587 39.2812C128.591 39.1341 129.533 38.7462 130.476 38.3578C131.272 38.0296 132.069 37.7012 132.907 37.5169C133.923 37.2931 134.973 37.2874 136.013 37.2828L137.388 37.2765C138.868 35.6681 138.811 33.9061 138.745 31.8628V31.8623C138.732 31.4757 138.719 31.0788 138.716 30.6711C141.282 31.0082 144.002 35.845 144.859 38.747C145.217 39.9591 146.275 40.7039 147.344 41.4572C148.275 42.1126 149.215 42.7746 149.711 43.7566ZM105.977 77.9735C106.27 77.8988 106.562 77.8246 106.851 77.7484C111.259 76.5822 115.372 74.5297 119.451 72.4908C124.31 70.0619 129.253 67.5743 133.151 63.7908C133.452 63.4985 133.93 63.5187 134.346 63.5724C135.886 63.7708 137.401 64.1639 138.843 64.7392C139.599 65.0407 140.448 65.5586 140.454 66.372C140.456 66.6585 140.346 66.9323 140.237 67.1975L139.511 68.977C139.202 69.7361 138.887 70.5235 138.913 71.3431C138.94 72.1625 139.405 73.0274 140.194 73.2526C140.982 73.4778 141.956 72.7443 141.752 71.9501C141.404 70.59 141.165 69.2019 141.039 67.8036C142.575 70.8456 142.046 74.4753 141.479 77.8357C139.446 76.7647 137.318 75.8741 135.128 75.178C134.376 74.9389 133.532 74.7283 132.822 75.0719C131.082 75.913 127.807 76.137 127.485 75.911C127.163 75.685 126.721 75.7941 126.35 75.9247C125.752 76.1349 124.611 76.5795 123.249 77.1107L123.248 77.1109C119.905 78.414 115.226 80.2381 113.938 80.4013C113.599 80.4444 113.258 80.4761 112.917 80.5081C112.179 80.5767 111.442 80.6456 110.726 80.8269C109.677 81.092 108.644 81.6414 108.089 82.5695C107.675 82.3415 107.416 81.9383 107.156 81.533C107.031 81.3374 106.905 81.1414 106.761 80.964C106.319 80.4196 105.391 80.0836 104.967 80.6424C104.595 79.3707 102.713 78.88 101.767 79.808C101.621 79.9515 101.499 80.1166 101.378 80.282C101.251 80.4537 101.124 80.6254 100.97 80.7728C100.669 81.0614 100.185 81.2392 99.8353 81.0116C101.266 79.1693 103.676 78.5575 105.977 77.9735ZM101.311 101.065C100.232 101.454 99.0401 101.075 97.9689 100.664C96.9561 100.275 95.8992 99.8107 95.2839 98.9171C94.5437 97.8419 94.6234 96.4229 94.7325 95.122L95.1894 89.6721C94.5117 90.2422 94.014 91.0229 93.7834 91.8779C93.2358 90.6697 94.0503 89.0562 95.3476 88.7793C94.7995 88.3253 93.8976 88.6233 93.5107 89.2205C93.1238 89.8177 93.1325 90.5869 93.2458 91.2895C93.2762 91.4788 93.3134 91.6681 93.3505 91.8572C93.4511 92.3695 93.5516 92.8821 93.5207 93.4007C92.7063 92.1284 92.5512 90.4578 93.1171 89.0573C93.3733 88.4229 93.8278 87.8022 94.492 87.639C95.1563 87.4756 95.9785 88.0184 95.8685 88.6935C95.6162 90.2409 96.3378 91.8294 97.4444 92.9402C98.5509 94.051 100.001 94.7506 101.464 95.3126C102.003 95.5195 102.673 95.9933 102.41 96.5071C102.136 97.0436 101.947 97.6509 102.041 98.2462C102.135 98.8414 102.571 99.4102 103.165 99.5128C103.897 99.6393 104.548 99.0722 105.075 98.548L108.184 95.4508C107.769 96.6018 107.283 97.7269 106.729 98.8177C106.35 99.5649 105.916 100.321 105.23 100.803C104.544 101.284 103.54 101.409 102.891 100.879C102.529 100.584 102.036 100.78 101.577 100.963L101.577 100.963C101.486 100.999 101.398 101.035 101.311 101.065ZM101.004 90.227C100.714 90.0346 100.423 89.8421 100.123 89.6726C99.1909 89.1468 97.9536 88.8643 97.0984 89.5067C96.8242 88.6244 97.3662 87.6766 98.0732 87.0813C99.3237 86.0285 101.157 85.7197 102.684 86.305C104.131 86.8596 105.6 87.4636 106.749 88.5031C107.899 89.5428 108.685 91.1148 108.39 92.6363C108.066 92.715 107.796 92.4555 107.544 92.2128C107.496 92.1665 107.449 92.1208 107.402 92.0782C106.687 91.4315 105.706 91.4141 104.707 91.396C104.099 91.3852 103.484 91.3743 102.918 91.2217C102.219 91.0331 101.612 90.6304 101.004 90.227ZM103.22 98.0877C103.508 97.3683 103.683 96.5762 103.526 95.8175C103.369 95.0587 102.821 94.3476 102.067 94.1692C100.323 93.7567 98.7371 92.7044 97.6796 91.2571C97.4664 90.9655 97.293 90.5106 97.5768 90.2872C97.6933 90.1957 97.8517 90.182 97.9999 90.1842C98.9551 90.1985 99.7908 90.6958 100.628 91.1939C100.967 91.3954 101.305 91.5971 101.652 91.767C102.483 92.1732 103.397 92.4055 104.321 92.4447C104.506 92.4525 104.693 92.4529 104.88 92.4536C105.469 92.4551 106.061 92.4566 106.596 92.6868C107.302 92.9897 107.822 93.9082 107.382 94.5374C106.336 96.0304 104.875 97.1736 103.436 98.2935L103.22 98.0877ZM156.167 55.4069C156.328 55.117 156.566 54.7838 156.895 54.8212C157.322 54.8699 157.408 55.4519 157.349 55.877C156.934 58.8936 155.066 61.5757 152.691 63.4806C150.315 65.3858 147.457 66.5918 144.566 67.5478C144.367 67.6135 144.172 67.7373 143.981 67.859C143.615 68.0916 143.263 68.3161 142.92 68.1105C142.524 67.8734 142.625 67.2231 142.985 66.9347C143.311 66.6733 143.746 66.6172 144.165 66.5631C144.208 66.5576 144.25 66.5522 144.293 66.5463C147.088 66.1701 149.584 64.5117 151.494 62.4359C153.404 60.3602 154.801 57.8747 156.167 55.4069ZM104.336 80.8165C104.587 81.1164 104.865 81.4469 105.247 81.4387C105.569 81.4317 105.769 81.6927 105.976 81.9633C106.123 82.1552 106.274 82.3517 106.474 82.4608C106.953 82.7218 106.994 83.4484 106.68 83.8941C106.366 84.3396 105.82 84.5565 105.293 84.6943C104.217 84.9753 103.081 85.0238 101.986 84.8358C101.271 84.713 100.53 84.4618 100.08 83.8937C99.6295 83.3254 99.6167 82.371 100.213 81.9588C100.413 81.8208 100.653 81.7564 100.892 81.6925C101.176 81.6162 101.459 81.5406 101.669 81.3413C101.824 81.1933 101.917 80.996 102.01 80.7988C102.108 80.5924 102.205 80.3864 102.374 80.2375C102.647 79.9967 103.06 79.9636 103.404 80.084C103.748 80.2044 104.03 80.4563 104.266 80.7337L104.288 80.7595L104.3 80.7745L104.336 80.8165ZM102.321 102.999C102.211 103.042 102.086 103.049 101.971 103.019C101.861 102.989 101.759 102.924 101.686 102.835C101.389 102.474 101.803 101.823 102.256 101.94C102.709 102.056 102.756 102.827 102.321 102.999ZM139.123 100.737C139.013 100.869 138.745 100.855 138.716 100.686C138.599 99.9887 138.543 99.1316 139.119 98.7228L139.217 100.243C139.228 100.415 139.234 100.605 139.123 100.737ZM133.344 39.1523C133.969 39.5664 134.463 40.1769 134.736 40.8754C134.792 41.0177 134.915 41.1118 135.039 41.2066C135.105 41.2566 135.17 41.3066 135.226 41.3642C135.39 41.5308 135.416 41.8873 135.188 41.934C135.088 41.9542 134.99 41.8992 134.902 41.8468C133.5 41.0095 131.794 40.3333 130.264 40.9054C130.516 41.0338 130.643 41.3635 130.543 41.6276C130.855 41.6389 131.146 41.7793 131.426 41.917L132.168 42.2806L132.09 42.4995C130.973 41.9307 129.608 41.8716 128.446 42.3417C128.833 42.4004 129.226 42.411 129.615 42.3734L131.316 43.2308C131.442 43.2943 131.575 43.3643 131.646 43.4864C131.717 43.6086 131.69 43.7978 131.558 43.8483C130.534 42.9446 129.084 42.5451 127.742 42.7962C127.585 42.8253 127.478 42.6069 127.544 42.4619C127.611 42.3169 127.77 42.2426 127.918 42.1844C128.663 41.8912 129.448 41.7017 130.244 41.6228C129.846 41.2535 129.384 40.9527 128.886 40.7367C128.804 40.4561 129.209 40.1873 129.436 40.3716C131.16 40.0336 133.007 40.369 134.502 41.2913C134.515 40.9982 134.297 40.7515 134.094 40.5398L132.185 38.5558C133.299 38.6968 134.391 39.0106 135.41 39.482C135.641 39.5888 135.868 39.7039 136.077 39.8485C136.863 40.3929 137.331 41.3665 137.265 42.3206C136.789 41.3139 136.035 40.4403 135.109 39.8217C134.579 39.4684 133.979 39.193 133.344 39.1523ZM137.269 48.4168C137.161 47.5751 137.156 46.6771 137.556 45.9286C137.676 45.7047 137.842 45.4898 138.078 45.3959C138.439 45.2525 138.854 45.4357 139.139 45.6999C139.845 46.3554 139.995 47.4175 139.935 48.3792C139.908 48.797 139.847 49.2244 139.642 49.5896C139.437 49.9547 139.063 50.2485 138.644 50.2546C138.224 50.2609 137.84 49.9766 137.621 49.6176C137.403 49.2586 137.322 48.8337 137.269 48.4168ZM127.217 51.5486C126.423 50.3333 126.476 48.624 127.345 47.4606C127.449 47.3217 127.567 47.1869 127.721 47.1074C128.021 46.9527 128.405 47.0459 128.665 47.2615C128.926 47.4771 129.082 47.7929 129.195 48.1113C129.531 49.0545 129.545 50.1088 129.234 51.0603C129.046 51.6375 128.579 52.2619 127.981 52.1576C127.651 52.1 127.4 51.8292 127.217 51.5486ZM134.845 57.7909C134.94 57.7643 135.035 57.738 135.105 57.6709C135.254 57.5285 135.202 57.2534 135.033 57.1354C134.864 57.0176 134.627 57.038 134.447 57.1378C134.264 57.239 134.119 57.439 134.15 57.6452C134.181 57.8515 134.445 58.0056 134.614 57.8843C134.682 57.8363 134.763 57.8135 134.845 57.7909ZM136.989 54.44C138.307 54.1479 139.044 54.1849 140.175 54.4733L140.414 54.5354C141.542 54.8301 142.247 54.8314 143.68 54.367C143.851 54.3116 144.035 54.4052 144.09 54.5765C144.146 54.748 141.532 55.4906 140.337 55.1887L140.117 55.1316C139.017 54.8425 138.377 54.8003 137.13 55.0766C136.954 55.1155 136.78 55.0046 136.741 54.8288C136.702 54.653 136.813 54.4791 136.989 54.44ZM147.344 51.2915C147.265 51.13 147.069 51.0635 146.908 51.1431C144.588 52.2849 143.302 52.4338 141.186 52.1637L140.653 52.0976C140.592 52.0906 140.538 52.085 140.482 52.0796L140.291 52.0626C139.032 51.9635 138.033 52.1774 136.752 52.9426C136.597 53.0349 136.547 53.2351 136.639 53.3896C136.731 53.5442 136.932 53.5948 137.086 53.5024C138.278 52.7902 139.159 52.6138 140.335 52.7207C140.413 52.7276 140.478 52.7342 140.554 52.7424L141.336 52.8387C143.438 53.0828 147.424 51.453 147.344 51.2915ZM131.249 54.352C131.428 54.3392 131.584 54.4743 131.597 54.6541C131.61 54.8336 131.475 54.9894 131.295 55.0023C130.552 55.0553 130.04 55.308 129.272 55.9272L128.994 56.1567L128.903 56.233C128.854 56.2741 128.812 56.3089 128.796 56.3219C128.119 56.8865 127.668 57.1943 127.069 57.4399C126.903 57.5081 125.752 57.7422 126.644 57.2619C127.536 56.7816 128.698 55.5545 128.698 55.5545L128.868 55.4152C129.73 54.7212 130.347 54.4161 131.249 54.352ZM131.738 55.9116C131.667 55.746 131.476 55.669 131.31 55.7397C130.492 56.0889 130.031 56.5355 129.257 57.5487L129.018 57.8597C128.861 58.0601 128.73 58.2625 128.602 58.4587C128.321 58.8914 128.059 59.2952 127.586 59.5862C126.898 60.0092 127.881 59.7875 128.035 59.6932C128.645 59.3176 129.041 58.9032 129.659 58.096L129.839 57.8617C130.51 56.9919 130.901 56.6231 131.566 56.3393C131.732 56.2687 131.809 56.0772 131.738 55.9116Z" fill="#00160A"/>
<path fill-rule="evenodd" clip-rule="evenodd" d="M132.88 54.876C132.613 54.6356 132.226 54.5619 131.965 54.3148C131.719 54.0805 131.624 53.6987 131.733 53.3762C131.842 53.0539 132.15 52.8081 132.488 52.7722C133.459 52.6692 134.43 52.5664 135.401 52.4634C135.631 52.439 135.886 52.4206 136.073 52.5579C136.358 52.7676 136.313 53.2258 136.107 53.5135C135.901 53.8011 135.583 53.9864 135.335 54.2385C135.015 54.5637 134.815 55.004 134.781 55.4587C134.755 55.7964 134.792 56.1989 134.525 56.4064C134.189 56.6668 133.692 56.3591 133.486 55.987C133.281 55.6149 133.196 55.1605 132.88 54.876Z" fill="#F09B58"/>
<path fill-rule="evenodd" clip-rule="evenodd" d="M172.249 100.892C174.311 100.9 177.246 100.826 178.745 99.4095C180.15 98.0816 180.64 96.4321 180.426 94.5104C180.213 92.589 178.735 90.2211 178.679 88.2886C179.12 92.414 184.98 93.5676 186.816 97.2879C187.809 99.2989 187.412 101.78 186.307 103.731C185.202 105.683 183.478 107.199 181.732 108.607C176.813 112.571 170.753 115.164 166.639 119.959C162.526 124.753 159.395 132.231 161.178 138.291C162.996 144.468 170.802 148.78 177.174 147.859C177.789 147.771 178.412 147.634 178.936 147.301C180.179 146.511 180.542 144.841 180.427 143.373C180.312 141.905 179.838 140.468 179.874 138.996C179.952 135.777 182.389 133.149 184.812 131.027C190.786 125.796 197.956 121.122 200.703 113.671C202.578 108.586 201.981 102.652 199.132 98.0421C195.263 91.7816 187.82 88.2805 184.332 81.8001C184.229 83.1141 183.997 84.4181 183.641 85.6871C183.488 86.2302 183.227 86.8503 182.676 86.9735C182.098 87.1026 188.556 77.9276 175.577 66.487C170.752 62.2331 164.771 59.1442 158.79 56.4653C156.741 62.9625 150.741 68.0327 143.993 68.9703C143.532 69.0344 143.427 69.6462 143.437 70.1115C143.584 76.5369 143.73 82.9626 143.876 89.3881C143.94 92.1801 143.755 95.4736 141.418 97.0023C140.454 97.6326 140.156 99.0866 140.793 100.045C141.43 101.005 142.886 101.293 143.84 100.649C142.733 98.7786 143.999 95.9815 146.135 95.5795C146.922 95.4315 147.173 94.4465 147.259 93.6506C147.646 90.0816 148.033 86.5125 148.42 82.9435C148.569 87.0152 148.718 91.087 148.868 95.1585C152.831 93.3727 157.45 96.5822 161.709 95.709C158.183 93.2662 154.929 90.1348 153.447 86.1094C151.965 82.0839 152.659 77.0455 155.958 74.3045C153.993 77.4445 153.605 81.5197 154.942 84.9742C156.232 88.3053 158.926 90.8757 161.674 93.1582C162.525 93.8656 163.441 94.6347 163.704 95.7099C163.968 96.7852 163.14 98.1603 162.05 97.9667C158.169 96.507 153.964 95.9131 149.83 96.2404C148.549 96.3417 147.206 96.5594 146.207 97.3685C145.209 98.1777 144.732 99.7555 145.504 100.782C154.419 100.818 163.334 100.855 172.249 100.892Z" fill="#F0F6F7"/>
<path fill-rule="evenodd" clip-rule="evenodd" d="M177.08 147.768C177.694 147.679 178.318 147.542 178.842 147.209C180.085 146.42 180.448 144.749 180.333 143.281C180.218 141.813 179.744 140.377 179.779 138.905C179.858 135.685 182.295 133.057 184.718 130.935C190.692 125.704 197.862 121.03 200.609 113.579C201.708 110.596 187.899 119.719 180.333 130.459C175.001 138.027 174.446 148.148 177.08 147.768Z" fill="#E7EAEE"/>
<path fill-rule="evenodd" clip-rule="evenodd" d="M182.16 73.5799C181.224 71.3257 178.614 69.1554 175.483 66.3953C170.658 62.1414 164.677 59.0525 158.696 56.3736C164.56 60.6455 171.709 64.2113 176.796 69.5729C179.276 72.1859 180.953 77.4524 182.355 79.1447C183.428 80.4403 184.829 80.0088 182.16 73.5799Z" fill="#E7EAEE"/>
<path fill-rule="evenodd" clip-rule="evenodd" d="M140.837 72.696C141.05 72.2316 141.2 70.0887 140.079 70.0887C139.381 70.8819 139.452 72.4043 140.837 72.696Z" fill="#F09B58"/>
<path fill-rule="evenodd" clip-rule="evenodd" d="M106.851 77.7488C104.307 78.4219 101.449 78.9343 99.8353 81.012C100.185 81.2396 100.669 81.0618 100.97 80.773C101.272 80.4844 101.469 80.101 101.767 79.8084C102.713 78.8802 104.595 79.3712 104.967 80.6428C105.391 80.084 106.319 80.42 106.761 80.9644C107.203 81.5089 107.475 82.2319 108.089 82.5699C108.644 81.6419 109.677 81.0925 110.726 80.8273C111.774 80.5622 112.866 80.5376 113.938 80.4018C115.752 80.172 117.523 79.6181 119.145 78.7739C119.046 78.9763 125.764 76.0634 131.911 75.6411C136.399 75.3327 140.621 77.3841 141.479 77.8361C142.046 74.4757 142.575 70.8461 141.039 67.804C141.165 69.2024 141.404 70.5905 141.752 71.9505C141.956 72.7447 140.982 73.4782 140.194 73.253C139.405 73.0279 138.94 72.1629 138.913 71.3435C138.887 70.524 139.202 69.7366 139.511 68.9774C139.753 68.3843 139.995 67.791 140.237 67.1979C140.346 66.9327 140.456 66.6589 140.454 66.3725C140.448 65.559 139.599 65.0411 138.843 64.7396C137.401 64.1644 135.886 63.7712 134.346 63.5728C133.93 63.5191 133.452 63.4989 133.151 63.7912C129.253 67.5748 124.31 70.0621 119.451 72.4913C115.372 74.5301 111.259 76.5826 106.851 77.7488Z" fill="#F0F6F7"/>
<path fill-rule="evenodd" clip-rule="evenodd" d="M108.089 82.5695C108.644 81.6414 109.678 81.0918 110.726 80.8267C111.774 80.5615 112.866 80.5372 113.938 80.4013C114.357 80.3483 116.075 80.0771 118.306 79.2942C121.531 78.1626 125.959 76.3559 130.177 75.8962C135.684 75.2962 140.594 77.3691 141.479 77.8357C142.046 74.4753 140.13 74.8787 139.102 74.7726C116.367 72.4243 107.475 82.2313 108.089 82.5695Z" fill="#E7EAEE"/>
</g>
<defs>
<clipPath id="clip0_233_5974">
<rect width="163" height="163" fill="white" transform="translate(57 8)"/>
</clipPath>
</defs>
</svg>
