<svg width="41" height="33" viewBox="0 0 41 33" fill="none" xmlns="http://www.w3.org/2000/svg">
<path d="M10.7084 18.4583H24.4167C24.9716 18.4583 25.437 18.2703 25.813 17.8943C26.189 17.5183 26.3763 17.0536 26.375 16.5C26.375 15.9451 26.187 15.4797 25.811 15.1037C25.435 14.7277 24.9702 14.5404 24.4167 14.5417H10.7084C10.1535 14.5417 9.68807 14.7297 9.31207 15.1057C8.93607 15.4817 8.74872 15.9464 8.75002 16.5C8.75002 17.0549 8.93802 17.5203 9.31402 17.8963C9.69002 18.2723 10.1548 18.4596 10.7084 18.4583ZM10.7084 12.5833H24.4167C24.9716 12.5833 25.437 12.3953 25.813 12.0193C26.189 11.6433 26.3763 11.1786 26.375 10.625C26.375 10.0701 26.187 9.60471 25.811 9.22871C25.435 8.85271 24.9702 8.66536 24.4167 8.66667H10.7084C10.1535 8.66667 9.68807 8.85467 9.31207 9.23067C8.93607 9.60667 8.74872 10.0714 8.75002 10.625C8.75002 11.1799 8.93802 11.6453 9.31402 12.0213C9.69002 12.3973 10.1548 12.5846 10.7084 12.5833ZM4.83336 32.1667C3.75627 32.1667 2.8339 31.7828 2.06623 31.0152C1.29857 30.2475 0.915385 29.3258 0.91669 28.25V4.75C0.91669 3.67292 1.30052 2.75054 2.06819 1.98287C2.83586 1.21521 3.75758 0.832028 4.83336 0.833333H36.1667C37.2438 0.833333 38.1661 1.21717 38.9338 1.98483C39.7015 2.7525 40.0847 3.67422 40.0834 4.75V28.25C40.0834 29.3271 39.6995 30.2495 38.9319 31.0171C38.1642 31.7848 37.2425 32.168 36.1667 32.1667H4.83336ZM4.83336 28.25H36.1667V4.75H4.83336V28.25Z" fill="#487A83"/>
</svg>
