<svg width="45" height="38" viewBox="0 0 45 38" fill="none" xmlns="http://www.w3.org/2000/svg">
<path d="M38.9121 32V36C38.9121 36.5667 38.7172 37.042 38.3276 37.426C37.938 37.81 37.4564 38.0013 36.8827 38C36.3078 38 35.8255 37.808 35.4358 37.424C35.0462 37.04 34.8521 36.5653 34.8534 36V32H30.7948C30.2198 32 29.7375 31.808 29.3479 31.424C28.9583 31.04 28.7641 30.5653 28.7655 30C28.7655 29.4333 28.9603 28.958 29.3499 28.574C29.7396 28.19 30.2212 27.9987 30.7948 28H34.8534V24C34.8534 23.4333 35.0482 22.958 35.4379 22.574C35.8275 22.19 36.3091 21.9987 36.8827 22C37.4577 22 37.94 22.192 38.3296 22.576C38.7193 22.96 38.9134 23.4347 38.9121 24V28H42.9707C43.5457 28 44.0279 28.192 44.4176 28.576C44.8072 28.96 45.0013 29.4347 45 30C45 30.5667 44.8052 31.042 44.4155 31.426C44.0259 31.81 43.5443 32.0013 42.9707 32H38.9121ZM4.41375 32C3.83878 32 3.35648 31.808 2.96685 31.424C2.57723 31.04 2.38309 30.5653 2.38444 30V20H2.02931C1.3867 20 0.862457 19.758 0.456595 19.274C0.0507327 18.79 -0.0845546 18.232 0.0507328 17.6L2.08004 7.6C2.18151 7.13334 2.41826 6.75 2.7903 6.45C3.16234 6.15 3.58512 6 4.05862 6H31.1499C31.6234 6 32.0462 6.15 32.4183 6.45C32.7903 6.75 33.0271 7.13334 33.1285 7.6L35.1578 17.6C35.2931 18.2333 35.1578 18.792 34.752 19.276C34.3461 19.76 33.8219 20.0013 33.1792 20H32.8241V24C32.8241 24.5667 32.6293 25.042 32.2397 25.426C31.85 25.81 31.3684 26.0013 30.7948 26C30.2198 26 29.7375 25.808 29.3479 25.424C28.9583 25.04 28.7641 24.5653 28.7655 24V20H20.6482V30C20.6482 30.5667 20.4534 31.042 20.0638 31.426C19.6742 31.81 19.1926 32.0013 18.6189 32H4.41375ZM6.44307 28H16.5896V20H6.44307V28ZM4.41375 4.00001C3.83878 4.00001 3.35648 3.80801 2.96685 3.42401C2.57723 3.04001 2.38309 2.56534 2.38444 2.00001C2.38444 1.43334 2.57926 0.958007 2.96888 0.574007C3.35851 0.190007 3.84013 -0.00132641 4.41375 6.9204e-06H30.7948C31.3698 6.9204e-06 31.8521 0.192007 32.2417 0.576007C32.6313 0.960007 32.8255 1.43467 32.8241 2.00001C32.8241 2.56667 32.6293 3.04201 32.2397 3.42601C31.85 3.81 31.3684 4.00134 30.7948 4.00001H4.41375Z" fill="#487A83"/>
</svg>
