<svg width="32" height="39" viewBox="0 0 32 39" fill="none" xmlns="http://www.w3.org/2000/svg">
<path d="M22.0417 19.6458C22.0417 19.2646 21.8902 18.899 21.6206 18.6294C21.351 18.3598 20.9854 18.2083 20.6042 18.2083H11.0208C10.6396 18.2083 10.274 18.3598 10.0044 18.6294C9.73478 18.899 9.58333 19.2646 9.58333 19.6458V20.6042C9.58333 22.5208 12.2341 23.9583 15.8125 23.9583C19.3909 23.9583 22.0417 22.5208 22.0417 20.6042V19.6458ZM19.1667 12.9279C19.1667 11.0783 17.6659 9.58333 15.8125 9.58333C13.9591 9.58333 12.4583 11.0764 12.4583 12.9279C12.4583 13.8175 12.8117 14.6706 13.4407 15.2997C14.0698 15.9287 14.9229 16.2821 15.8125 16.2821C16.7021 16.2821 17.5552 15.9287 18.1843 15.2997C18.8133 14.6706 19.1667 13.8175 19.1667 12.9279ZM0 4.79167C0 3.52084 0.504835 2.30206 1.40345 1.40345C2.30206 0.504835 3.52084 0 4.79167 0H26.8333C27.4626 0 28.0857 0.12394 28.667 0.364744C29.2484 0.605548 29.7766 0.958499 30.2216 1.40345C30.6665 1.84839 31.0195 2.37662 31.2603 2.95797C31.5011 3.53933 31.625 4.16242 31.625 4.79167V32.1042C31.625 32.4854 31.4736 32.8511 31.204 33.1206C30.9344 33.3902 30.5687 33.5417 30.1875 33.5417H2.875C2.875 34.05 3.07693 34.5375 3.43638 34.897C3.79582 35.2564 4.28333 35.4583 4.79167 35.4583H30.1875C30.5687 35.4583 30.9344 35.6098 31.204 35.8794C31.4736 36.1489 31.625 36.5146 31.625 36.8958C31.625 37.2771 31.4736 37.6427 31.204 37.9123C30.9344 38.1819 30.5687 38.3333 30.1875 38.3333H4.79167C3.52084 38.3333 2.30206 37.8285 1.40345 36.9299C0.504835 36.0313 0 34.8125 0 33.5417V4.79167ZM2.875 4.79167V30.6667H28.75V4.79167C28.75 4.28333 28.5481 3.79582 28.1886 3.43638C27.8292 3.07693 27.3417 2.875 26.8333 2.875H4.79167C4.28333 2.875 3.79582 3.07693 3.43638 3.43638C3.07693 3.79582 2.875 4.28333 2.875 4.79167Z" fill="#487A83"/>
</svg>
