<svg width="262" height="63" viewBox="0 0 262 63" fill="none" xmlns="http://www.w3.org/2000/svg">
<path d="M0 17.28H8.832V21.376H8.96C9.344 20.8213 9.83467 20.2667 10.432 19.712C11.072 19.1147 11.7973 18.5813 12.608 18.112C13.4613 17.6427 14.3787 17.2587 15.36 16.96C16.3413 16.6613 17.3867 16.512 18.496 16.512C20.8 16.512 22.8907 16.9173 24.768 17.728C26.6453 18.496 28.2453 19.6053 29.568 21.056C30.9333 22.464 31.9787 24.1493 32.704 26.112C33.4293 28.0747 33.792 30.2293 33.792 32.576C33.792 34.752 33.4507 36.8427 32.768 38.848C32.128 40.8107 31.1893 42.56 29.952 44.096C28.7573 45.632 27.2853 46.8693 25.536 47.808C23.7867 48.704 21.8027 49.152 19.584 49.152C17.5787 49.152 15.7013 48.8533 13.952 48.256C12.2453 47.616 10.8373 46.5493 9.728 45.056H9.6V62.976H0V17.28ZM8.832 32.832C8.832 35.1787 9.49333 37.0773 10.816 38.528C12.1813 39.9787 14.08 40.704 16.512 40.704C18.944 40.704 20.8213 39.9787 22.144 38.528C23.5093 37.0773 24.192 35.1787 24.192 32.832C24.192 30.4853 23.5093 28.5867 22.144 27.136C20.8213 25.6853 18.944 24.96 16.512 24.96C14.08 24.96 12.1813 25.6853 10.816 27.136C9.49333 28.5867 8.832 30.4853 8.832 32.832Z" fill="#487A83"/>
<path d="M58.9365 44.48H58.8085C57.7418 46.144 56.3125 47.3387 54.5205 48.064C52.7712 48.7893 50.9152 49.152 48.9525 49.152C47.5018 49.152 46.0938 48.9387 44.7285 48.512C43.4058 48.128 42.2325 47.5307 41.2085 46.72C40.1845 45.9093 39.3738 44.9067 38.7765 43.712C38.1792 42.5173 37.8805 41.1307 37.8805 39.552C37.8805 37.76 38.2005 36.2453 38.8405 35.008C39.5232 33.7707 40.4192 32.7467 41.5285 31.936C42.6805 31.1253 43.9818 30.5067 45.4325 30.08C46.8832 29.6107 48.3765 29.2693 49.9125 29.056C51.4912 28.8427 53.0485 28.7147 54.5845 28.672C56.1632 28.6293 57.6138 28.608 58.9365 28.608C58.9365 26.9013 58.3178 25.5573 57.0805 24.576C55.8858 23.552 54.4565 23.04 52.7925 23.04C51.2138 23.04 49.7632 23.3813 48.4405 24.064C47.1605 24.704 46.0085 25.6 44.9845 26.752L39.8645 21.504C41.6565 19.84 43.7472 18.6027 46.1365 17.792C48.5258 16.9387 51.0005 16.512 53.5605 16.512C56.3765 16.512 58.6805 16.8747 60.4725 17.6C62.3072 18.2827 63.7578 19.3067 64.8245 20.672C65.9338 22.0373 66.7018 23.7227 67.1285 25.728C67.5552 27.6907 67.7685 29.9733 67.7685 32.576V48.384H58.9365V44.48ZM56.5685 34.752C55.8432 34.752 54.9258 34.7947 53.8165 34.88C52.7498 34.9227 51.7045 35.0933 50.6805 35.392C49.6992 35.6907 48.8458 36.1387 48.1205 36.736C47.4378 37.3333 47.0965 38.1653 47.0965 39.232C47.0965 40.384 47.5872 41.2373 48.5685 41.792C49.5498 42.3467 50.5738 42.624 51.6405 42.624C52.5792 42.624 53.4752 42.496 54.3285 42.24C55.2245 41.984 56.0138 41.6213 56.6965 41.152C57.3792 40.6827 57.9125 40.0853 58.2965 39.36C58.7232 38.6347 58.9365 37.7813 58.9365 36.8L58.2965 35.392L56.5685 34.752Z" fill="#487A83"/>
<path d="M70.0795 17.28H80.3195L86.6555 36.8H86.7835L92.0955 17.28H102.591L108.352 36.8H108.479L114.304 17.28H124.032L112.959 48.384H103.487L97.0235 27.712H96.8955L91.1355 48.384H81.4715L70.0795 17.28Z" fill="#487A83"/>
<path d="M144.704 26.432C143.296 24.6827 141.44 23.808 139.136 23.808C138.325 23.808 137.536 24 136.768 24.384C136 24.768 135.616 25.4293 135.616 26.368C135.616 27.136 136 27.712 136.768 28.096C137.579 28.4373 138.581 28.7573 139.776 29.056C141.013 29.312 142.315 29.6107 143.68 29.952C145.088 30.2507 146.389 30.7413 147.584 31.424C148.821 32.1067 149.824 33.0453 150.592 34.24C151.403 35.392 151.808 36.9493 151.808 38.912C151.808 40.9173 151.36 42.5813 150.464 43.904C149.611 45.184 148.501 46.2293 147.136 47.04C145.771 47.808 144.235 48.3413 142.528 48.64C140.821 48.9813 139.136 49.152 137.472 49.152C135.296 49.152 133.099 48.8533 130.88 48.256C128.661 47.616 126.784 46.5067 125.248 44.928L131.072 38.464C131.968 39.5733 132.949 40.4267 134.016 41.024C135.125 41.5787 136.405 41.856 137.856 41.856C138.965 41.856 139.968 41.7067 140.864 41.408C141.76 41.0667 142.208 40.4693 142.208 39.616C142.208 38.8053 141.803 38.208 140.992 37.824C140.224 37.3973 139.221 37.056 137.984 36.8C136.789 36.5013 135.488 36.2027 134.08 35.904C132.715 35.5627 131.413 35.072 130.176 34.432C128.981 33.792 127.979 32.896 127.168 31.744C126.4 30.5493 126.016 28.9707 126.016 27.008C126.016 25.1733 126.379 23.5947 127.104 22.272C127.872 20.9493 128.853 19.8613 130.048 19.008C131.285 18.1547 132.693 17.536 134.272 17.152C135.851 16.7253 137.451 16.512 139.072 16.512C141.12 16.512 143.189 16.8107 145.28 17.408C147.371 18.0053 149.141 19.072 150.592 20.608L144.704 26.432Z" fill="#487A83"/>
<path d="M156.857 17.28H166.457V48.384H156.857V17.28ZM156.089 7.488C156.089 5.952 156.622 4.65067 157.689 3.584C158.798 2.47467 160.121 1.92 161.657 1.92C163.193 1.92 164.494 2.47467 165.561 3.584C166.67 4.65067 167.225 5.952 167.225 7.488C167.225 9.024 166.67 10.3467 165.561 11.456C164.494 12.5227 163.193 13.056 161.657 13.056C160.121 13.056 158.798 12.5227 157.689 11.456C156.622 10.3467 156.089 9.024 156.089 7.488Z" fill="#487A83"/>
<path d="M174.25 0H183.85V20.608H183.978C185.087 19.1147 186.495 18.0693 188.202 17.472C189.951 16.832 191.829 16.512 193.834 16.512C196.053 16.512 198.037 16.9813 199.786 17.92C201.535 18.816 203.007 20.032 204.202 21.568C205.439 23.104 206.378 24.8747 207.018 26.88C207.701 28.8427 208.042 30.912 208.042 33.088C208.042 35.4347 207.679 37.5893 206.954 39.552C206.229 41.5147 205.183 43.2213 203.818 44.672C202.495 46.08 200.895 47.1893 199.018 48C197.141 48.768 195.05 49.152 192.746 49.152C191.637 49.152 190.591 49.0027 189.61 48.704C188.629 48.4053 187.711 48.0213 186.858 47.552C186.047 47.0827 185.322 46.5707 184.682 46.016C184.085 45.4187 183.594 44.8427 183.21 44.288H183.082V48.384H174.25V0ZM183.082 32.832C183.082 35.1787 183.743 37.0773 185.066 38.528C186.431 39.9787 188.33 40.704 190.762 40.704C193.194 40.704 195.071 39.9787 196.394 38.528C197.759 37.0773 198.442 35.1787 198.442 32.832C198.442 30.4853 197.759 28.5867 196.394 27.136C195.071 25.6853 193.194 24.96 190.762 24.96C188.33 24.96 186.431 25.6853 185.066 27.136C183.743 28.5867 183.082 30.4853 183.082 32.832Z" fill="#487A83"/>
<path d="M213.795 0H223.395V48.384H213.795V0Z" fill="#487A83"/>
<path d="M259.732 43.008C258.196 44.9707 256.254 46.4853 253.908 47.552C251.561 48.6187 249.129 49.152 246.612 49.152C244.222 49.152 241.961 48.768 239.827 48C237.737 47.232 235.902 46.144 234.324 44.736C232.788 43.2853 231.572 41.5573 230.676 39.552C229.78 37.5467 229.332 35.3067 229.332 32.832C229.332 30.3573 229.78 28.1173 230.676 26.112C231.572 24.1067 232.788 22.4 234.324 20.992C235.902 19.5413 237.737 18.432 239.827 17.664C241.961 16.896 244.222 16.512 246.612 16.512C248.83 16.512 250.836 16.896 252.628 17.664C254.462 18.432 255.998 19.5413 257.236 20.992C258.516 22.4 259.497 24.1067 260.18 26.112C260.862 28.1173 261.204 30.3573 261.204 32.832V35.84H238.932C239.316 37.6747 240.148 39.1467 241.428 40.256C242.708 41.3227 244.286 41.856 246.164 41.856C247.742 41.856 249.065 41.5147 250.132 40.832C251.241 40.1067 252.201 39.1893 253.012 38.08L259.732 43.008ZM251.604 29.312C251.646 27.6907 251.113 26.304 250.004 25.152C248.894 24 247.465 23.424 245.715 23.424C244.649 23.424 243.71 23.5947 242.9 23.936C242.089 24.2773 241.385 24.7253 240.788 25.28C240.233 25.792 239.785 26.4107 239.444 27.136C239.145 27.8187 238.974 28.544 238.932 29.312H251.604Z" fill="#487A83"/>
</svg>
